<mxfile host="65bd71144e">
    <diagram id="KRMARjMAX-OkAln99GQ6" name="Page-1">
        <mxGraphModel dx="1329" dy="909" grid="1" gridSize="10" guides="1" tooltips="1" connect="1" arrows="1" fold="1" page="1" pageScale="1" pageWidth="1000" pageHeight="700" background="#ffffff" math="0" shadow="0">
            <root>
                <mxCell id="0"/>
                <mxCell id="1" parent="0"/>
                <mxCell id="gui-UeIwCjaPfNMYucGp-8" value="" style="rounded=1;whiteSpace=wrap;html=1;fillColor=#f5f5f5;strokeColor=#666666;strokeWidth=2;fontColor=#333333;" parent="1" vertex="1">
                    <mxGeometry x="90" y="120" width="820" height="380" as="geometry"/>
                </mxCell>
                <mxCell id="6" value="" style="rounded=1;whiteSpace=wrap;html=1;strokeColor=#6c8ebf;strokeWidth=2;fillColor=#dae8fc;opacity=40;dashed=1;" vertex="1" parent="1">
                    <mxGeometry x="250" y="210" width="350" height="190" as="geometry"/>
                </mxCell>
                <mxCell id="gui-UeIwCjaPfNMYucGp-1" value="VPC (APS Team)" style="points=[[0,0],[0.25,0],[0.5,0],[0.75,0],[1,0],[1,0.25],[1,0.5],[1,0.75],[1,1],[0.75,1],[0.5,1],[0.25,1],[0,1],[0,0.75],[0,0.5],[0,0.25]];outlineConnect=0;gradientColor=none;html=1;whiteSpace=wrap;fontSize=12;fontStyle=0;container=1;pointerEvents=0;collapsible=0;recursiveResize=0;shape=mxgraph.aws4.group;grIcon=mxgraph.aws4.group_vpc;strokeColor=#248814;fillColor=none;verticalAlign=top;align=left;spacingLeft=30;fontColor=#AAB7B8;dashed=0;" parent="1" vertex="1">
                    <mxGeometry x="520" y="170" width="360" height="280" as="geometry"/>
                </mxCell>
                <mxCell id="gui-UeIwCjaPfNMYucGp-2" value="Private subnet (Web)" style="points=[[0,0],[0.25,0],[0.5,0],[0.75,0],[1,0],[1,0.25],[1,0.5],[1,0.75],[1,1],[0.75,1],[0.5,1],[0.25,1],[0,1],[0,0.75],[0,0.5],[0,0.25]];outlineConnect=0;gradientColor=none;html=1;whiteSpace=wrap;fontSize=12;fontStyle=0;container=1;pointerEvents=0;collapsible=0;recursiveResize=0;shape=mxgraph.aws4.group;grIcon=mxgraph.aws4.group_security_group;grStroke=0;strokeColor=#147EBA;fillColor=#E6F2F8;verticalAlign=top;align=left;spacingLeft=30;fontColor=#147EBA;dashed=1;dashPattern=1 1;strokeWidth=2;" parent="gui-UeIwCjaPfNMYucGp-1" vertex="1">
                    <mxGeometry x="190" y="35" width="160" height="210" as="geometry"/>
                </mxCell>
                <mxCell id="gui-UeIwCjaPfNMYucGp-27" value="" style="rounded=0;whiteSpace=wrap;html=1;dashed=1;fillColor=#fff2cc;strokeColor=#d6b656;" parent="gui-UeIwCjaPfNMYucGp-2" vertex="1">
                    <mxGeometry x="19" y="32.5" width="122" height="145" as="geometry"/>
                </mxCell>
                <mxCell id="gui-UeIwCjaPfNMYucGp-3" value="Kong DP Task" style="shape=image;verticalLabelPosition=bottom;verticalAlign=top;imageAspect=0;aspect=fixed;image=data:image/png,iVBORw0KGgoAAAANSUhEUgAAARgAAAEYCAIAAAAI7H7bAAAd1UlEQVR4nOzde1hNWR8H8LPPOel+QUWJilSSpEQkTLlUEkluYdzl8g4zg8aYi0toDCYGuQxSoYmiFEroIkpUSBRFCk2plO51Ou/zvL3PjOmc6nRae6+9z/l9/jzrnL1+z5hve++1116Ly9W1ZAEAuoaNuwAAJAEECQAEIEgAIABBAgABCBIACECQAEAAggQAAhAkABCAIAGAAAQJAAQgSAAgAEECAAEIEgAIQJAAQACCBAACECQAEIAgAYAABAkABCBIACAAQQIAAQgSAAhAkABAAIIEAAIQJAAQgCABgAAECQAEIEgAIABBAgABCBIACECQAEAAggQAAhAkABCAIAGAAAQJAAQgSAAgAEECAAEIEgAIQJAAQACCBAACECQAEIAgAYAABAkABCBIACAAQQIAAQgSAAhAkABAgMNW08ZdAyCdnGy3k/u2KsjLP3n+AnctkomLuwBAuj69NS8e2zt8qMlEW+vUjMwXr97grkgCwaWdhBs5bEjylcDhQ01YLJZGz+7JVwKnThyLuygJBJd2kmyhm/OFY7+qKiv9/Ylst26zXSZzOZyElDQ+n4+1OokCQZJYDuNHB/v9wuFwBJtsR1pYDR18/XZSXX09jtIkEARJAqn36L564ay9P30jLyfb1ncM9Poum+eq3UsjPfN5dW0ttQVKIIKra4m7BoCS84SxAQe8lRUVRPx+SvqT8e7Lmpp4JNcl4WCwQXIQBOG1enHYiX2ip6hlNCL6rF8v9R5klib54IwkIWS4XH/f7bOcJ4n387dFxbM8N93PyERdl7SAM5KEWLd0ntgpannWdPvCiaVzXZEWJUVgsEES2FiZH/P5oZuMTFcOwuFwnCeM7avV6+rtJBgZ7ywIEuMtnet6/rCPnGybA3SdMszU+FNV9b20x0iOJj0gSEwlLyc7f8aUI7u+X+nhxmGjvEQfN8qyfz+d4tKywvfFCA8r2WCwgZE01Xvcveyvq0PuH8GQyJgVm3ZU18BTpo7BYAMj7fl+PdkpYrFYs5wn3Qk7PUCvL9kdSQAIEsMQBPHj+hUeM5yo6c7U2CA5ImCgfj9qumMuuEdiEkUF+aDfd3rOn0llp3KysoONBgSFRVHZKeNAkBhDV0c75qzfOGsM97R6fbWHmRpHx92tq2+gvndGgMEGBtDT0d7y1bJZUycpyMthLKOsvCLo0tWT5y9lvcjDWAY9QZAYIDXqrPlgI9xV/GP/8cDvdh+Eh7afg8EGuhtibECrFLFYrG9WLFjh4Ya7CnqBINHdhDEjcZcgxE6vtZZmJriroBEIEt3Z21rjLkEIVWWl+It/fOnugrsQuoBRO1pTU1H+besGGRk6LvbE5XBcJo3rrdEzNjGF19yMuxzMIEj0payoEHpiH80fhlqamXzpPlVNRTnjaXZ9g/QOjkOQ6OuQ93euDna4q+iYirLSWGtLU2OD4PDruGvBBoJEU4MG9vfbtYXNJnAXIqqB+v0G6OpEx9+VzuUfYLCBpnZ5reVwGPav4+HqdOfSab2+0vinmWH/VFJizIhhzhMYuR6q2SDD+5FBk8aOwl0I1eDSjnYIgjj7+04drV64CxGTvJzs3GkOTU28pAcZuGuhDpyR6IUgWAe3e1lbmOEupEvYbPaOjasfx14YbDgAdy0UgSDRi4XpIM8FlL4lQR5eEy/vTSHuKihCxyd90kxVRTkgNFKMH5oaDrAYMoiEisT0/OWriXM9a+ukZW1xmP0tIUyNDNKjg3FX8X95+YX2c1ZI1dopMNggIYpLyzhs9tiRFrgLYb0tKh7vvlSqUgRBkijxyQ+NDfTx3t+/LSq2n7Myv/A9xhqwgCBJlPCYuI8Vn0ZaDJGT7YalgIiY+ODw61I4uQHukSSQ+WCjuAt/KCrIY+k97Nqt2as2YekaIzgjSaCiktKsnLxZUycRBIapeoMG6r8tKk7PfE591xjBGYkWTI0NBvTTEeOH9x4+Li4tE9p0Legwrrdrq2tqLZ3m5b4uwNI7FhAk/BQV5LNuh2n30hDjtw8fZ9nNXlFTWyfYNHXiuLAT+1AUKI4Hj7LGui1pbGrCVQDF4NIOvy3/WTbF3la832r30jA20LsYFSvYlPu6YKy1pa6OVpcLFId2bw0ul3MrKRVL79SDIGHWT7t30O+7uFwhe4+LaJCBvqxst1tJ91t9zufzo24muDrY9VBT7XKZ4hhtOTTwYmTFpyosvVMMgoSTipJi9Lmj4l3Ufc7Gyvz9XyVpAvf3tXX158Oj1VSVzAcbUT/wQBBELw31sGs3Ke4XCwgSTgvcnJfMnobkUPZjRoZE3ij/WNnq89q6uqibicUfysS+euwKU6MBb94WPcrKpr5risHsb5wcxo9GdSh5OdmIU77dVVWEth4/G3roNJ6ZeLu+W4ulX4pBkLBRVJC3sxmB8ICG/XX/9PtFhit8Rv8G7/0vcYxHy3bDM8eCYhAkbDZ6fqmspIj2mF+Mtvp9h5fQJh6v+WjgBbTdgb9BkPDop93725ULyTjy0rmu36xYILTJ/8KVkrJyMjoFECQMdLR6hZ8+QN68Up/NX53at1VJYK5dReWnEVPmC33oBLoIRu2oRhBEdNARUjeYIAhiqIlhfX1jQkpaq6bKqurQq7EyXK7tiGHkFfC5+oaGPX7+1PSFEZyRqDZ/htPwoVTs47DCY0ZbG5P9vM8v9KpUPN6hDASJUooK8t6bKBoO1uql4f/bdqHPYfl8/pJvf0578oyaSqQBBIlSGz2/7Po8BtG5Oth5b1ojtKmmtm760q/fFknXC+HkgSBRR1VFmaSRunZsWrVooZuz0Kb3xR+mL/26sVFaJmiTCgYbqLN+6bxJ4zCs5es8cWwv9Z7J6Y/rBBbHKiopraqpIa8qHo8XciUm4kY8ScenD3gfiSJsNvv1vSgtCq/rWsnJy7d0nFdXL2ShuZN7f144cyoZne4+dPKnvX5kHJlu4NKOIvNnTMGYopYJRLNdJgltWrV515376ch7vH03dfehU8gPS08QJCooKSq0ddNPpdULZwn9vKGxcebKDa/evEXYl19AiNPCtdKz0ioEiQpeqxdpaarjroJlMWRQW7OHSssrXJasR/ISXmNTk+fmnV/9tEeqFuWCwQbS6epoBxzw7so7sAjZ24x4lJWdk5cv2PSh7GN65vM50xy6sk1gSVm5y+L14dG3u1Ym80CQyNVXu3fEaV8qnx21jyAIV0c7FSXFlPQnDY2NrVrz3hRej0ty/MJGpfPT0ktKy3/Yc2jFph0vXr1BVy9jwKgdidhs9r3wM7TaJOJv6ZnPx7svE7r8kMcMJ//92zt7QPs5KxOSHyKqjnngHolE82dMoWeKWCzWMFPjM747hE4guhgZ++xFnuiHqq6pneW5SZpTBJd2JOomI3P51G/Kigq4C2mTsYG+nKzsTYHlh3g83rW4pLnTHRTlO170OP/t+8keq+OlO0VwRiKRjZU5HUbq2rdx1ZdDTYS80PG64J37yo2CN1GtJKSkWU9d8OT5C9IKZAwIElkcxtvgLkEka74U/nApKTVjpdeOdn544lyY4/w1H8o+klYak0CQyDJ5PDO2yJ8zzcFAv5/QpqCwq78cOS20KTI2YfX3uzo8ZUkPuEciBUEQ9mNGGBvo4y6kYzJc7txpDpVV1RlPs/l8fqvWW0mpua8LJthay3aTafmk+EPZIf/gTTt96+sbcNRLUxAkssTde7Dcw40Ri1EpyMtNsbfV7qURGZsg2Prk+ctu3WTGWVuyWKyIG/H2c1Zej7sLKWoFgkSWmtq6R09z5kybjGWTIjEMMzWuqa279/CRYFNOXr7n/Jl7/PzXbNnd0ACXc0JAkEiUm19QWl7h+AUzRh1YLJadjdXjrJxsgQlEVdU1/iHhkTcTMdXFABAkcj149FSjh5rV0MG4CxEJQRBTJ47zDwmvqqlt1ST4CfgcBAkNJUUFLpcjdF+tmIR7VuaDDfT64qir02RkuFXVNYLreIH2QZAQcLK3vR50ZL7rlOy8/FcFrd/q4fP5oVdja+saxoww53BoMQe8fRZmJgXvi548f4m7ECaBIHXVFHvbC0f3qCorafTsvsBtyqs3hY+ftX7Sz+M130lN19HqZUnXqXefk+0m4+pgJy9s9hBoCwSpS9Ysmn1q31buZxtATLG3jbv3oOBdkeCX8wvfeS5wp7ZA8dlYmUvJ1kZIQJDExOGwfbdu/HH9ilaj2xw223nC2NCrsR8rP7X6SXFpOYvFankgwwiOdjaJKWn5b9/jLoQB4H0kcSgrKpw77NPONmHZua8tHefVN7R+akkQRMAB7zkuk8mvEY2yj5U2roteSuW7ep0Cc+06TUVJMe7iH+1vtmc0QM996kTBz/l8/vKN25LTHpNZIEo91FQiTvnKycriLoTu4NKucwz76549tFuU50IjzE2TUjPe/VXS6vMmHi8kIoZFsKzMB3OZMIjXs7uqeg+1q7fu4C6E1iBInfDVknmX/tivq6MlypeVlRQXz5724NFTwQ0nG5uabt9Nffj42dzpDoyYQGRpZtLW7CHQAoIkEg6HfXD7pi1fLevU//cEQThPGBsZm1BSKmSfvNz8Aitz04FtvMJAN3Y2Vk+evcjOfY27EJqCe6SOKSsqXD7pK97ItYqSYsQpX82ePYS2+gWEdLk6irDZ7IAD3sNMjXEXQlMQpA6oKivFh57syj7+ujraF4/vFfo+xfW4u9Hxd7tWIHUU5OUun/yNPkuL0QoEqQNb1i0fYjywiwcZZWl2fM+Pgp/z+fx5azZn5XRiyR68tHtphJ/ybWsjQGkG90htsrYw89n81eLZ09goxgOGGA+srqm597D1wHd9Q+P58OvycnKWZoPYbAb8Xeutqe7qaBcdd7e8ohJ3LTQCD2SF+N/QgtcKDze0h21sahrntjT10VOhrXNcJgce3Im2R/JE3Ih3W/4t7ipoBM5IrakoKYae2DdrqvAdULqCw2ZPmTA2NCpW6Fr1mdm5DJpAZKDfLzElLb8QZg/9H5yR/kVVWSnuwh+mxgbkdfH4Wc64mcuqqmsEmwiCSLt+3tSIxN4RKq+otJm+SDpX+hbEgItyKv2wbjmpKWKxWGaDDAMPeHM4Qv7L8/n8I2cYMyDeXVUl/JRvDzUV3IXQAlza/cPVwc7n+3Uc8u/4DfvrKsjLxSamCDZlv3w919VRTUWZ7BqQ6NlddYS5aXB4NK+5GXctmEGQWGw24WRne3C7l9eaxRSkqMUoy6FDTQxj4u/V/Xtdq8ampvPh13uoqZoPNmLE7CE9HW0nuzFPc3IL3v2FuxacpD1IqspKYX/s3/KfZf11dSju2niAHofNjr3T+rxUU1t3JTbhA3OWH9LSVF/k7hISeaO0XHqXL5bqIOn20Yo5d9TaYgiuAowG6J3687LQjVYZt/zQ/yZqJOEuBBvpHWzQ7qWRFH7GxLA/xhp6dlcNOfprNxkZoa1fb9vLoAlEC9ymSPPsIYkd/h5ladbW/6At1iya7epgR2FFbToVfHnld95Cm1SUFJ/HX9bo2Z3yosSR8TR73MylQncBlHiSGaRhpsb3I4NwV9EJ3+0+uO9YgNCm7RtWb167hPKKxBQeEzfLc1Oz9A3iSeY90o/rlluameCuohPsbKza2mz8xas3qxa6M+Jd2pYRFHlZ2ZsCIygST9KCxGYTnvPdN3p+SZPt+EXUstm4kqJCYkp6q2cylVXVETFxgwb219Nhxr/U6OFDzQYNvJ+RWVEpZCaUpJK0IO3Z8vW2DauYlaIWHA7HZrh5UUnpg8dZrZqKS8sDQ6MG9tdlyuwhYwP9BW7Ol6Nvl32swF0LRSRq1G6W86T1yzxwV9Elqxa4C30Oy7jlh1omEMnLScvyQ5JzRhpsNODyyd/aH6mjP42e3blc7u27qYJNTTxeVGziTOcJDJpA9OrNu4ynUrFWq4SckdRUlEOP7VVU6Hg7e/rbvHaJh6uT0Kbi0jKXxesqq6opL0pMq9vY6VnySMgZ6fxhH2sLM9xVIONkP+Z/C4gLmb1WUlr+6GkOU9bx6q2pXldff/eB5K/jJQlBWrd03trFc3BXgRKHw5k1dRJBEKkZT3k8XqvW3PwCFkEw5RVA+zEjDXT7Jqc/EfoKlsRg/ANZ/X59Ht8IkdQ1dWMS7jl/+ZXgZuMEQVzxPzB5nPhrG1HsffGHUS4L3xYV4y6ELMy+R1KQlws7vk9SU8RisSaNHSV0JTDGLT+kpal++eRvknETKxSzg+S3ewvZL7Ri19bClJVV1S5L1heXllFekZjMBxsFHPBmxK2dGBgcpP8smTtvuiPuKkjn+IXNpLGjhDblF75zW75BcPMY2nKZOM7eZgTuKkjB1MEG2xEWAb7ejFgIrotadhqPiIn/UCbktbnC93/l5RfOcLTHUZo4VFWU/4yIxl0FeswLEkEQ65bOO7bnRzlZIYsASyTZbt3mTXesqalLe/JMcOAhMzs3Ifmhw3gbRtyBDNTvp6WpnpL+ROjrjMzFvCA52Y05vX8b02cwdJacrKzDFzb6/fqEx8QJtuYXvv9UVT3F3hZHaZ1DEISlmcn0yV+cD78mSVli3qXRkjnTcZeAjYerk9fqxUKbzl26xqDNXg30+104tleS/hoy7IxkMWSQz+Z10nBr1BY7G6tnL/KyXrQe+G5saoq9k+Lh6iR02wsa0tXR0tHSjLgRj7sQNJgUpJ7dVWPO+cGKhFPsbf0vXBGcKNAye2jOtMlMGWI2H2wkMROIGBMkDocdenw/bHTFYrFkuNxHWTlPnr8QbMrNLyhlzjpe/zvBjrgQeeMD89fxYsY1krGB/s3g4/ZjJPMRRGclJD+8HH27rVa/gJBpS9YLblxLTwRB+Pn8oKykiLuQrmLAXDujAXrJEQFKigq4C6GF5y9fDXfy6PAhLOOWHxrvvqy6phZ3IeKj+6WdsqJCzDk/aV4w7XPNzc2uy74VZXSuvqFRVUXZdsQwSurqqt6a6iaGAy5GxQo+JWMKul/andq/zWiAHu4q6OKQf3BK+hMRv3z8bCizZg/t8lqLuwrx0fqMZDPc3Of7dbiroIu8/MLZq70am5pE/H5lVTWzZg+NHj70bVFxeuZz3IWIg9ZB2vat51ATQ9xV0MWsVZs6u6sXs3YBZLFYDuNHJ6VmvC58h7uQTqPvpZ2ujvbMKRNxV0EXJ86Fxd17IMYPvQ+cCGbOJFEZLjfk6J6e3VVxF9JpND0jzXCyD/Hb011V2p+9tjgadPHbbXt5PDHXAb4SE19aXmFtMYQRb0DKy8nq9+tz6dotZg080HH423OB++87vHBXQRePsnKGO83r+nFMDPvfjwxiygSigItXlm7YhruKTqDdGcnawuzc4d2U7ZxHf0cDLySmpHX9OCWl5Yb6umaDBqIoinRDTYzq6xuSHmTgLkRU9Pr/tbdGzz/9fpHhcnEXQiNhV2+iOtShM3+iOhQFdnqtpcm+O6KgUZDYbPb5wz7w7PVzoVdvPnv5CtXRHjx66hfAmF3TWSzWGd8dFkMG4a5CJDQK0kTbkWMY8iSeGmUfK9f/vAftMZm1C6C8nOzlk7/paGniLqRjdLlH0lTvEXDAW7NnD9yF0MWLV29cFq/Le1OI9rB8Pj/0amxtXcPIYaaMeK9OWVFhzjSHktLyx8+EzHanD7qM2uUkhOv364O7CpE8e/kqNiGZ7F72nwgsfE/icorWFmaxwUeZMojHYrEcF6yJTaTv/mV0CVLja3GeNmKxYN0PweHXcVeBwByXyYEHd+KuQlSRsQmuy77BXUWbaHSPxAivC95dvt7mu0DMEhwRvd33OO4qROVoN+aL0Va4q2gTBKkT6uob3D031tVLzto33gdOZGa/xF2FSDhsdsjRPYb9dXEXIhwEqRP+86OPhG2bxefzj5xhzIC4mopyxClfes7EgyCJpKj4wyzPTf4hEbgLQc8/JMLn8CmmvLk0QK9vSmQQDR/UwmBDxz5WfrKa4vG6gHlz+0U3edzoiNO+DFrnbMsvh/b4+eOu4h8QpI5NW7L+6q07QptcJo7T60v6qP2tu/czn5N+J7Nq4ayD2zeR3Qsq1TW1aiY0WlkWZrV1IPF+elspchg/+sKxXyn4K174vth66vy/PpC7g4tfQMggA71VC5mx62ta5jPcJfwLY07luJz+M1zo5/r9+gQcoGg7DB0tzfNHfCiYy8ugCUT30zNxl/AvEKT2FL4vDr0aK/i5grxc6PG9VL53aDvC4retG8juhcdrnrdmc0lpOdkddd39DAgSQ0TdTBzjuqimtq7V5316a9655D/EmOoXe1bOn3nh2K99epM7g7OyqnrV5p1NAjtA00plVfUNmk0XgiAJFxwRPX3p10I3D976jecQTPttTp/8RfKVQC1NdVJ7CY+JW/z1T6R20UWxiSmfqqpxV/EvECQhnr3I8/zOu63W8aOGU1vOv/TW6Hnh2K9kv0FM89lDqY/odV0HQRKiqrpm5sqN7SyfezPpPrUVtTZy2BAKlsmn8/JDyWmirpJJGQhSa8s2bsvJy2/nC5ev36KwHOGWe7iR3QWfz1++cVty2mOyO+osHq+ZhotIQpD+JTntSWhHayTcSkoteP8XVRUJN3n8aBsrc7J7qatvcFu+gW4bAWZmv6ThcvsQpH9U1dRu2LG/w681NDZOmuuJd9I0h82OPPP718vnczkcUjsqLi0b5bKQVmeAsGvIVoNBCKYI/R+P1zzZY1V88kMRv6/Ro/uTmxexz0QOCI1c+u1WsnsZPnTwvfAzZPcioiET3J+jWxAGFTgj/d8Pvx4SPUUsFqukrHyjd8enL7ItdHNes2g22b3QZ/mhik9V2bmvcVchBASJ1fLkZN+xwM7+KjA06kYi6Ys3dGjvD99QMCJPk9lDqRlP6bmUMQSJlfu6YOm3W8X751n9/S7BqQ8U43I55w/7qCorkdpLy+yhrJzWu6lTjG4zg/4m7UGqrauf6bmx4lOVeD9/XfDup71HUBfVaeo91Oa5OpLdS2VVtcuS9cWl5E5Cb5/o+6xRTNqDtGbLri6+6nPIP/jdXyXoKhLTCvKfLLFYrPzCd27LN2B8nRbOSLTzqarabcWGwNCoLh6Hx2v2OXwaUVHiMzUyiDrzuz75bxkmpz22nroAy15giSlpH8o+Ut+vKKQ3SEfOhETExCE51ImzoZ3dS48Mk8aNSr4SSME6m5nZuV47D5Ddi6BQWj5BaiGlQeLz+afRrWTSxOOt9GpzkiuVeqiphB3fp6ggT3ZHETFx1M8eSs14SnGPopPSIO04cCI3vwDhARPvp/1xLgzhAcVmamxwYs9PBEGQ2ksTj0fx7CEej0fntdCkMUgxCfd2HvwD+WG/232QDqMOLBbL3XniplWLyO6luLTMZfG6SqreCyoqKW1obKSmLzFIXZDevCta8NWW5mYx92NtR8WnqnU/Id6FRWzbN6wy0OtLdi9ZOXmXqLpvKcQ9Ubh90hWkiBvxtq6Lyz5WknT88Ji4so8VJB28U9hsdn/yRx1UlZVcJo4nu5cWCDdcI4MULcd19tLVRSS/Qa2ro9VDjRYL6pZXVN66m0p2L66Odt3VKFoBhoYTVT8nLWekktLyNVt2k92LoT5dlngPCo1qaiJ9ARM7mxFkd/G3t0W0uP9si7QEKSgsioK3wQb270d2FyI6djaU7C4IgqAySHCPRAvUrH9voEv6/b0oElLSKHjXwMSwfy916rYqFbqiE31IRZAOnQ7OekHFtOUB5A+UieJ40EUKerG3GUlBLy34fP47egdJwgcbamrrft535PdTwRT0xWYTVkMHU9BR+24kJF+MErI6LFoEwVo824XsXv52805KfQN9HyLR6FVzABhNKi7tACAbBAkABCBIACAAQQIAAQgSAAhAkABAAIIEAAIQJAAQgCABgAAECQAEIEgAIABBAgABCBIACECQAEAAggQAAhAkABCAIAGAAAQJAAQgSAAgAEECAAEIEgAIQJAAQACCBAACECQAEIAgAYAABAkABCBIACAAQQIAAQgSAAhAkABAAIIEAAIQJAAQgCABgAAECQAEIEgAIABBAgABCBIACECQAEAAggQAAhAkABCAIAGAAAQJAAQgSAAgAEECAAEIEgAIQJAAQACCBAACECQAEIAgAYAABAkABCBIACAAQQIAAQgSAAhAkABAAIIEAAIQJAAQgCABgAAECQAEIEgAIABBAgABCBIACECQAEAAggQAAhAkABD4bwAAAP//OUlvVvDLPaoAAAAASUVORK5CYII=;fontColor=#000000;" parent="gui-UeIwCjaPfNMYucGp-2" vertex="1">
                    <mxGeometry x="73" y="83" width="34" height="34" as="geometry"/>
                </mxCell>
                <mxCell id="gui-UeIwCjaPfNMYucGp-29" value="" style="edgeStyle=orthogonalEdgeStyle;rounded=0;orthogonalLoop=1;jettySize=auto;html=1;strokeColor=#000000;" parent="gui-UeIwCjaPfNMYucGp-2" source="gui-UeIwCjaPfNMYucGp-28" target="gui-UeIwCjaPfNMYucGp-3" edge="1">
                    <mxGeometry relative="1" as="geometry"/>
                </mxCell>
                <mxCell id="gui-UeIwCjaPfNMYucGp-28" value="ECS" style="sketch=0;points=[[0,0,0],[0.25,0,0],[0.5,0,0],[0.75,0,0],[1,0,0],[0,1,0],[0.25,1,0],[0.5,1,0],[0.75,1,0],[1,1,0],[0,0.25,0],[0,0.5,0],[0,0.75,0],[1,0.25,0],[1,0.5,0],[1,0.75,0]];outlineConnect=0;fontColor=#232F3E;gradientColor=#F78E04;gradientDirection=north;fillColor=#D05C17;strokeColor=#ffffff;dashed=0;verticalLabelPosition=bottom;verticalAlign=top;align=center;html=1;fontSize=12;fontStyle=0;aspect=fixed;shape=mxgraph.aws4.resourceIcon;resIcon=mxgraph.aws4.ecs;rounded=0;" parent="gui-UeIwCjaPfNMYucGp-2" vertex="1">
                    <mxGeometry x="19" y="32.5" width="28" height="28" as="geometry"/>
                </mxCell>
                <mxCell id="gui-UeIwCjaPfNMYucGp-13" value="ENI" style="sketch=0;outlineConnect=0;fontColor=#232F3E;gradientColor=none;fillColor=#4D27AA;strokeColor=none;dashed=0;verticalLabelPosition=bottom;verticalAlign=top;align=center;html=1;fontSize=12;fontStyle=0;aspect=fixed;pointerEvents=1;shape=mxgraph.aws4.elastic_network_interface;" parent="gui-UeIwCjaPfNMYucGp-1" vertex="1">
                    <mxGeometry x="20" y="112.25" width="45.5" height="45.5" as="geometry"/>
                </mxCell>
                <mxCell id="gui-UeIwCjaPfNMYucGp-25" style="edgeStyle=orthogonalEdgeStyle;rounded=0;orthogonalLoop=1;jettySize=auto;html=1;strokeColor=#000000;" parent="gui-UeIwCjaPfNMYucGp-1" source="gui-UeIwCjaPfNMYucGp-6" target="gui-UeIwCjaPfNMYucGp-3" edge="1">
                    <mxGeometry relative="1" as="geometry"/>
                </mxCell>
                <mxCell id="gui-UeIwCjaPfNMYucGp-6" value="&lt;font color=&quot;#000000&quot;&gt;ALB&lt;/font&gt;" style="outlineConnect=0;dashed=0;verticalLabelPosition=bottom;verticalAlign=top;align=center;html=1;shape=mxgraph.aws3.application_load_balancer;fillColor=#F58534;gradientColor=none;" parent="gui-UeIwCjaPfNMYucGp-1" vertex="1">
                    <mxGeometry x="120" y="109" width="50" height="52" as="geometry"/>
                </mxCell>
                <mxCell id="gui-UeIwCjaPfNMYucGp-24" style="edgeStyle=orthogonalEdgeStyle;rounded=0;orthogonalLoop=1;jettySize=auto;html=1;strokeColor=#000000;" parent="gui-UeIwCjaPfNMYucGp-1" source="gui-UeIwCjaPfNMYucGp-13" target="gui-UeIwCjaPfNMYucGp-6" edge="1">
                    <mxGeometry relative="1" as="geometry">
                        <mxPoint x="130" y="135.0999999999999" as="sourcePoint"/>
                    </mxGeometry>
                </mxCell>
                <mxCell id="gui-UeIwCjaPfNMYucGp-20" style="edgeStyle=orthogonalEdgeStyle;rounded=0;orthogonalLoop=1;jettySize=auto;html=1;strokeColor=#000000;" parent="1" source="gui-UeIwCjaPfNMYucGp-9" target="gui-UeIwCjaPfNMYucGp-18" edge="1">
                    <mxGeometry relative="1" as="geometry">
                        <mxPoint x="230" y="305" as="targetPoint"/>
                    </mxGeometry>
                </mxCell>
                <mxCell id="gui-UeIwCjaPfNMYucGp-9" value="API Gateway" style="outlineConnect=0;dashed=0;verticalLabelPosition=bottom;verticalAlign=top;align=center;html=1;shape=mxgraph.aws3.api_gateway;fillColor=#D9A741;gradientColor=none;" parent="1" vertex="1">
                    <mxGeometry x="150" y="273.5" width="60" height="63" as="geometry"/>
                </mxCell>
                <mxCell id="gui-UeIwCjaPfNMYucGp-10" value="VPC" style="points=[[0,0],[0.25,0],[0.5,0],[0.75,0],[1,0],[1,0.25],[1,0.5],[1,0.75],[1,1],[0.75,1],[0.5,1],[0.25,1],[0,1],[0,0.75],[0,0.5],[0,0.25]];outlineConnect=0;gradientColor=none;html=1;whiteSpace=wrap;fontSize=12;fontStyle=0;container=1;pointerEvents=0;collapsible=0;recursiveResize=0;shape=mxgraph.aws4.group;grIcon=mxgraph.aws4.group_vpc;strokeColor=#248814;fillColor=none;verticalAlign=top;align=left;spacingLeft=30;fontColor=#AAB7B8;dashed=0;" parent="1" vertex="1">
                    <mxGeometry x="126" y="170" width="203.5" height="280" as="geometry"/>
                </mxCell>
                <mxCell id="gui-UeIwCjaPfNMYucGp-18" value="ENI" style="sketch=0;outlineConnect=0;fontColor=#232F3E;gradientColor=none;fillColor=#4D27AA;strokeColor=none;dashed=0;verticalLabelPosition=bottom;verticalAlign=top;align=center;html=1;fontSize=12;fontStyle=0;aspect=fixed;pointerEvents=1;shape=mxgraph.aws4.elastic_network_interface;" parent="gui-UeIwCjaPfNMYucGp-10" vertex="1">
                    <mxGeometry x="143.5" y="112.25" width="45.5" height="45.5" as="geometry"/>
                </mxCell>
                <mxCell id="5" style="edgeStyle=none;html=1;strokeColor=#000000;" edge="1" parent="1" source="3" target="gui-UeIwCjaPfNMYucGp-13">
                    <mxGeometry relative="1" as="geometry"/>
                </mxCell>
                <mxCell id="3" value="VPC-to-VPC NAT" style="sketch=0;outlineConnect=0;fontColor=#232F3E;gradientColor=none;fillColor=#4D27AA;strokeColor=none;dashed=0;verticalLabelPosition=bottom;verticalAlign=top;align=center;html=1;fontSize=12;fontStyle=0;aspect=fixed;pointerEvents=1;shape=mxgraph.aws4.network_load_balancer;" vertex="1" parent="1">
                    <mxGeometry x="390" y="275.5" width="59" height="59" as="geometry"/>
                </mxCell>
                <mxCell id="4" style="edgeStyle=none;html=1;strokeColor=#330000;" edge="1" parent="1" source="gui-UeIwCjaPfNMYucGp-18" target="3">
                    <mxGeometry relative="1" as="geometry"/>
                </mxCell>
                <mxCell id="7" value="&lt;font style=&quot;font-size: 15px&quot;&gt;AWS Hyperplane&lt;/font&gt;" style="text;html=1;resizable=0;autosize=1;align=center;verticalAlign=middle;points=[];fillColor=none;strokeColor=none;rounded=0;fontColor=#000000;opacity=40;" vertex="1" parent="1">
                    <mxGeometry x="354.5" y="240" width="130" height="20" as="geometry"/>
                </mxCell>
                <mxCell id="9" value="" style="rounded=1;whiteSpace=wrap;html=1;fontSize=15;strokeColor=#005700;strokeWidth=2;opacity=20;fillColor=#008a00;fontColor=#ffffff;" vertex="1" parent="1">
                    <mxGeometry x="344.5" y="240" width="150" height="130" as="geometry"/>
                </mxCell>
                <mxCell id="10" value="VPC Link for HTTP APIs" style="text;html=1;resizable=0;autosize=1;align=center;verticalAlign=middle;points=[];fillColor=none;strokeColor=none;rounded=0;fontSize=15;fontColor=#000000;opacity=20;" vertex="1" parent="1">
                    <mxGeometry x="329.5" y="210" width="180" height="20" as="geometry"/>
                </mxCell>
            </root>
        </mxGraphModel>
    </diagram>
</mxfile>